<?xml version="1.0" standalone="no"?>
<!DOCTYPE svg PUBLIC "-//W3C//DTD SVG 20010904//EN"
 "http://www.w3.org/TR/2001/REC-SVG-20010904/DTD/svg10.dtd">
<svg version="1.0" xmlns="http://www.w3.org/2000/svg"
 width="1800.000000pt" height="1800.000000pt" viewBox="0 0 1800.000000 1800.000000"
 preserveAspectRatio="xMidYMid meet">
<metadata>
Created by potrace 1.11, written by Peter Selinger 2001-2013
</metadata>
<g transform="translate(0.000000,1800.000000) scale(0.100000,-0.100000)"
fill="#000000" stroke="none">
<path d="M0 9000 l0 -9000 9000 0 9000 0 0 9000 0 9000 -9000 0 -9000 0 0
-9000z m7015 4170 c83 -5 179 -17 215 -26 110 -28 218 -84 314 -165 197 -164
288 -342 303 -589 10 -176 -18 -320 -92 -475 -18 -39 -410 -619 -870 -1290
-461 -671 -841 -1230 -846 -1243 -27 -70 6 -165 71 -205 l35 -22 3920 -7 3920
-7 112 35 c144 46 223 93 290 175 95 116 143 240 143 373 0 34 5 89 11 121 8
46 7 76 -6 149 -10 50 -23 123 -30 163 -17 91 -57 182 -98 221 -43 41 -176
128 -230 151 -25 11 -89 34 -143 53 l-99 33 -2270 5 -2270 5 -55 21 c-91 35
-137 61 -298 172 -166 113 -214 161 -264 267 -49 105 -68 218 -68 408 0 156 2
175 26 245 58 172 163 331 279 425 77 62 199 122 300 147 80 20 107 20 2455
18 l2375 -3 160 -48 c88 -27 228 -68 310 -93 266 -80 424 -149 609 -270 445
-291 751 -719 911 -1274 87 -303 118 -545 119 -930 l1 -275 -59 -185 c-169
-537 -286 -756 -587 -1103 -180 -206 -379 -339 -736 -491 -289 -123 -485 -185
-712 -226 -112 -19 -151 -20 -1514 -20 -1151 0 -1398 -2 -1394 -13 9 -24 611
-988 754 -1207 159 -245 263 -413 317 -515 37 -68 38 -73 32 -145 -5 -77 -44
-227 -73 -283 -51 -102 -184 -214 -376 -317 -203 -109 -476 -147 -642 -90
-121 42 -321 202 -405 325 -19 28 -318 442 -665 920 -347 479 -646 893 -665
920 -48 70 -174 199 -246 251 -142 102 -315 165 -502 184 -74 8 -644 10 -1867
8 l-1760 -3 -95 -26 c-52 -15 -124 -38 -159 -53 -130 -53 -278 -161 -372 -273
-28 -32 -305 -453 -617 -936 -312 -484 -595 -912 -629 -951 -139 -165 -363
-293 -588 -337 -148 -28 -393 -11 -524 37 -74 28 -179 96 -237 153 -71 71
-128 215 -174 442 -45 222 -9 465 98 663 29 53 3699 5653 4255 6492 108 163
206 263 352 358 196 129 310 181 370 171 17 -3 98 -10 180 -15z"/>
</g>
</svg>
